<?xml version="1.0" encoding="utf-8"?>
<svg xmlns="http://www.w3.org/2000/svg" xmlns:svg="http://www.w3.org/2000/svg" version="1.1" viewBox="0 0 90 20">
	<title>The word James written in capital letters with the ‘J,’ ‘E,’ and ‘S’ printed backwards.</title>
	<path d="m12.503 14.091-2.2804-0.31276q-0.09122 2.1892-0.82098 2.9972-0.72976 0.80794-2.0198 0.80794-0.95128 0-1.642-0.43002-0.69066-0.44306-0.9513-1.1859-0.26062-0.75582-0.26062-2.3978v-13.161h-2.5283v13.018q0 2.3978 0.58642 3.714 0.57338 1.3162 1.8374 2.0068 1.251 0.69066 2.945 0.69066 2.515 0 3.8572-1.4465 1.3292-1.4465 1.2771-4.3004z"/>
	<path d="m14.895 19.675 7.337-19.104h2.7236l7.818 19.104h-2.88l-2.2284-5.786h-7.9882l-2.098 5.786zm5.5122-7.8448h6.4766l-1.994-5.2911q-0.9122-2.4108-1.3553-3.9616-0.3649 1.8374-1.0295 3.6488z"/>
	<path d="m34.489 19.675v-19.104h3.8052l4.522 13.527q0.62552 1.8895 0.9122 2.8278 0.3258-1.0425 1.0164-3.0624l4.574-13.292h3.4012v19.104h-2.437v-15.989l-5.551 15.989h-2.28l-5.526-16.263v16.263z"/>
	<path d="m71.513 19.675v-19.104h-13.813v2.2539h11.285v5.851h-10.568v2.2414h10.568v6.502h-11.728v2.2544z"/>
	<path d="m90.019 13.537-2.3848-0.20848q-0.1694 1.4335-0.78188 2.3586-0.62552 0.9122-1.9286 1.4856-1.3031 0.56032-2.932 0.56032-1.4465 0-2.5542-0.43002t-1.642-1.1728q-0.54734-0.75582-0.54734-1.642 0-0.89916 0.52124-1.5638 0.52124-0.67764 1.7201-1.1337 0.76886-0.2997 3.4012-0.92522 2.6324-0.63854 3.6878-1.1989 1.3683-0.71672 2.046-1.7723 0.6646-1.0686 0.6646-2.3848 0-1.4465-0.82098-2.6974-0.82098-1.264-2.3978-1.9156-1.5768-0.65156-3.5054-0.65156-2.1242 0-3.74 0.69066-1.6289 0.67764-2.502 2.0068t-0.93826 3.0102l2.4238 0.18245q0.19548-1.8114 1.3292-2.7366 1.1207-0.92522 3.323-0.92522 2.2936 0 3.349 0.84704 1.0425 0.834 1.0425 2.0198 0 1.0295-0.74278 1.6941-0.72976 0.6646-3.8052 1.3683-3.0884 0.69066-4.2352 1.2119-1.668 0.76884-2.463 1.9547-0.79492 1.1728-0.79492 2.7106 0 1.5247 0.8731 2.88 0.8731 1.3422 2.515 2.098 1.6289 0.7428 3.6748 0.7428 2.5932 0 4.3524-0.75582 1.7462-0.75582 2.7496-2.2674 0.99038-1.5247 1.0425-3.4402z"/>
</svg>
